# xmcd CD database file generated by Grip 3.0.7
# 
# Track frame offsets:
#       150
#       13650
#       27865
#       41175
#       55237
#       67382
#       81460
#       95185
#       109090
#       121882
#       135720
#       150377
#       164182
#       176687
# 
# Disc length: 2543 seconds
# 
# Revision: 1
# Processed by: cddbd v1.5PL3 Copyright (c) Steve Scherf et al.
# Submitted via: Grip 3.0.7
# 
DISCID=cc09ed0e
DTITLE=Various Artist - Roots of Robert Johnson
DYEAR=2000
DGENRE=Blues
TTITLE0=Skip James - Devil Got My Woman
TTITLE1=Kokomo Arnold - Milk Cow Blues
TTITLE2=Leroy Carr - When The Sun Goes Down
TTITLE3=Son House - My Black Mama Part 1
TTITLE4=Charlie Patton - Revenue Man Blues
TTITLE5=Henry Thomas - Red River Blues
TTITLE6=Hambone Willie Newbern - Roll And Tumble Blues
TTITLE7=Lonnie Johnson - Life Saver Blues
TTITLE8=Skip James - 22-20 Blues
TTITLE9=Scrapper Blackwell - Kokomo Blues
TTITLE10=The Mississippi Sheiks - Sitting On Top Of The World
TTITLE11=Son House - Preachin' The Blues Part I
TTITLE12=Casey Bill Weldon - Go Ahead, Buddy
TTITLE13=Johnnie Temple - Lead Pencil Blues
EXTD=
EXTT0=
EXTT1=
EXTT2=
EXTT3=
EXTT4=
EXTT5=
EXTT6=
EXTT7=
EXTT8=
EXTT9=
EXTT10=
EXTT11=
EXTT12=
EXTT13=
PLAYORDER=
